# xmcd
#
# Track frame offsets:
#	150
#	21155
#	39738
#	54842
#	64637
#	77835
#	88025
#	105327
#	117911
#	130852
#
# Disc length: 2100 seconds
#
# Revision: 1
# Processed by: cddbd v1.5.2PL0 Copyright (c) Steve Scherf et al.
# Submitted via: audiograbber 1.83.01
#
DISCID=7708320a
DTITLE=Hank Williams Jr. - Man of Steel
DYEAR=1983
DGENRE=Country
TTITLE0=Man Of Steel
TTITLE1=The Air That I Breathe
TTITLE2=Woman On The Run
TTITLE3=She Had Me
TTITLE4=Midnight Rider
TTITLE5=Love sick Blues
TTITLE6=Queen Of My Heart
TTITLE7=Now I Know George Feels
TTITLE8=I Just Don' Get It No More
TTITLE9=Orange Blossom Special
EXTD=
EXTT0=
EXTT1=
EXTT2=
EXTT3=
EXTT4=
EXTT5=
EXTT6=
EXTT7=
EXTT8=
EXTT9=
PLAYORDER=
